<?xml version="1.0" encoding="UTF-8"?>
<svg id="Layer_2" data-name="Layer 2" xmlns="http://www.w3.org/2000/svg" xmlns:xlink="http://www.w3.org/1999/xlink" viewBox="0 0 500 500">
  <defs>
    <style>
      .cls-1, .cls-2 {
        fill: none;
      }

      .cls-2 {
        stroke: #d1b8ac;
        stroke-miterlimit: 10;
      }

      .cls-3 {
        fill: url(#_Новый_узор);
        opacity: .15;
      }
    </style>
    <pattern id="_Новый_узор" data-name="Новый узор" x="0" y="0" width="266.3" height="266.3" patternTransform="translate(169.04 270)" patternUnits="userSpaceOnUse" viewBox="0 0 266.3 266.3">
      <g>
        <rect class="cls-1" x="0" width="266.3" height="266.3"/>
        <g>
          <line class="cls-2" x1="138.43" y1="415.33" x2="138.43" y2="244.32"/>
          <line class="cls-2" x1="144.42" y1="409.26" x2="144.42" y2="238.58"/>
          <line class="cls-2" x1="150.41" y1="403.5" x2="150.41" y2="232.45"/>
          <line class="cls-2" x1="156.4" y1="397.36" x2="156.4" y2="226.58"/>
          <path class="cls-2" d="M271.63,266.04l-31.2,31.2c-1.31,1.31-2.05,3.09-2.05,4.94v23.56c0,1.85.74,3.63,2.05,4.94l10.87,10.87"/>
        </g>
        <g>
          <line class="cls-2" x1="5.28" y1="415.33" x2="5.28" y2="244.32"/>
          <line class="cls-2" x1="11.27" y1="409.26" x2="11.27" y2="238.58"/>
          <line class="cls-2" x1="17.26" y1="403.5" x2="17.26" y2="232.45"/>
          <line class="cls-2" x1="23.25" y1="397.36" x2="23.25" y2="226.58"/>
          <path class="cls-2" d="M138.48,266.04l-31.2,31.2c-1.31,1.31-2.05,3.09-2.05,4.94v23.56c0,1.85.74,3.63,2.05,4.94l10.87,10.87"/>
        </g>
        <path class="cls-2" d="M5.33,266.04l-31.2,31.2c-1.31,1.31-2.05,3.09-2.05,4.94v23.56c0,1.85.74,3.63,2.05,4.94l10.87,10.87"/>
        <g>
          <path class="cls-2" d="M145.4,437.14l80.22-80.22c1.63-1.63,2.54-3.83,2.54-6.13v-29.44c0-2.62-1.18-5.1-3.22-6.74l-21.99-17.75c-2.04-1.65-3.22-4.12-3.22-6.74v-48.15c0-2.3-.91-4.5-2.54-6.13l-12.35-12.35"/>
          <path class="cls-2" d="M208.15,345.51l-49.21-49.21c-1.63-1.63-2.54-3.83-2.54-6.13v-29.44c0-2.62,1.18-5.1,3.22-6.74l21.99-17.75c2.04-1.65,3.22-4.12,3.22-6.74v-48.15c0-2.3.91-4.5,2.54-6.13l17.63-17.63"/>
          <line class="cls-2" x1="206.51" y1="299.72" x2="294.66" y2="211.57"/>
          <line class="cls-2" x1="201.45" y1="295.27" x2="294.61" y2="202.1"/>
          <line class="cls-2" x1="199.73" y1="287.46" x2="294.59" y2="192.6"/>
          <line class="cls-2" x1="205.01" y1="282.18" x2="205.01" y2="111.17"/>
          <line class="cls-2" x1="211" y1="276.1" x2="211" y2="105.43"/>
          <line class="cls-2" x1="216.99" y1="270.35" x2="216.99" y2="99.3"/>
          <line class="cls-2" x1="222.98" y1="264.21" x2="222.98" y2="93.43"/>
          <path class="cls-2" d="M176.91,240.03l6.11,5.91c1.81,1.75,2.83,4.16,2.83,6.68v70.59"/>
          <path class="cls-2" d="M164.41,250.13l3.67,3.55c1.81,1.75,2.83,4.16,2.83,6.68v47.91"/>
          <path class="cls-2" d="M247.16,184.82l-13.91,13.91c-1.18,1.18-2.77,1.84-4.43,1.84h-5.83"/>
        </g>
        <g>
          <path class="cls-2" d="M12.25,437.14l80.22-80.22c1.63-1.63,2.54-3.83,2.54-6.13v-29.44c0-2.62-1.18-5.1-3.22-6.74l-21.99-17.75c-2.04-1.65-3.22-4.12-3.22-6.74v-48.15c0-2.3-.91-4.5-2.54-6.13l-12.35-12.35"/>
          <path class="cls-2" d="M75,345.51l-49.21-49.21c-1.63-1.63-2.54-3.83-2.54-6.13v-29.44c0-2.62,1.18-5.1,3.22-6.74l21.99-17.75c2.04-1.65,3.22-4.12,3.22-6.74v-48.15c0-2.3.91-4.5,2.54-6.13l17.63-17.63"/>
          <line class="cls-2" x1="73.36" y1="299.72" x2="161.51" y2="211.57"/>
          <line class="cls-2" x1="68.29" y1="295.27" x2="161.45" y2="202.1"/>
          <line class="cls-2" x1="66.58" y1="287.46" x2="161.43" y2="192.6"/>
          <line class="cls-2" x1="71.86" y1="282.18" x2="71.86" y2="111.17"/>
          <line class="cls-2" x1="77.85" y1="276.1" x2="77.85" y2="105.43"/>
          <line class="cls-2" x1="83.84" y1="270.35" x2="83.84" y2="99.3"/>
          <line class="cls-2" x1="89.83" y1="264.21" x2="89.83" y2="93.43"/>
          <path class="cls-2" d="M43.76,240.03l6.11,5.91c1.81,1.75,2.83,4.16,2.83,6.68v70.59"/>
          <path class="cls-2" d="M31.26,250.13l3.67,3.55c1.81,1.75,2.83,4.16,2.83,6.68v47.91"/>
          <path class="cls-2" d="M114.01,184.82l-13.91,13.91c-1.18,1.18-2.77,1.84-4.43,1.84h-5.83"/>
          <path class="cls-2" d="M205.06,132.89l-31.2,31.2c-1.31,1.31-2.05,3.09-2.05,4.94v23.56c0,1.85.74,3.63,2.05,4.94l10.87,10.87"/>
        </g>
        <g>
          <line class="cls-2" x1="-59.79" y1="299.72" x2="28.36" y2="211.57"/>
          <line class="cls-2" x1="-64.86" y1="295.27" x2="28.3" y2="202.1"/>
          <line class="cls-2" x1="-66.58" y1="287.46" x2="28.28" y2="192.6"/>
          <path class="cls-2" d="M71.91,132.89l-31.2,31.2c-1.31,1.31-2.05,3.09-2.05,4.94v23.56c0,1.85.74,3.63,2.05,4.94l10.87,10.87"/>
        </g>
        <g>
          <path class="cls-2" d="M211.98,303.98l80.22-80.22c1.63-1.63,2.54-3.83,2.54-6.13v-29.44c0-2.62-1.18-5.1-3.22-6.74l-21.99-17.75c-2.04-1.65-3.22-4.12-3.22-6.74v-48.15c0-2.3-.91-4.5-2.54-6.13l-12.35-12.35"/>
          <path class="cls-2" d="M274.73,212.36l-49.21-49.21c-1.63-1.63-2.54-3.83-2.54-6.13v-29.44c0-2.62,1.18-5.1,3.22-6.74l21.99-17.75c2.04-1.65,3.22-4.12,3.22-6.74v-48.15c0-2.3.91-4.5,2.54-6.13l17.63-17.63"/>
          <line class="cls-2" x1="266.3" y1="154.31" x2="361.16" y2="59.45"/>
          <path class="cls-2" d="M243.49,106.88l6.11,5.91c1.81,1.75,2.83,4.16,2.83,6.68v70.59"/>
          <path class="cls-2" d="M230.99,116.98l3.67,3.55c1.81,1.75,2.83,4.16,2.83,6.68v47.91"/>
          <line class="cls-2" x1="252.43" y1="164.92" x2="287.23" y2="199.72"/>
          <path class="cls-2" d="M240.06,247.26v-27.04c0-3.13,1.24-6.14,3.46-8.35l15.36-15.36"/>
        </g>
        <g>
          <path class="cls-2" d="M78.83,303.98l80.22-80.22c1.63-1.63,2.54-3.83,2.54-6.13v-29.44c0-2.62-1.18-5.1-3.22-6.74l-21.99-17.75c-2.04-1.65-3.22-4.12-3.22-6.74v-48.15c0-2.3-.91-4.5-2.54-6.13l-12.35-12.35"/>
          <path class="cls-2" d="M141.57,212.36l-49.21-49.21c-1.63-1.63-2.54-3.83-2.54-6.13v-29.44c0-2.62,1.18-5.1,3.22-6.74l21.99-17.75c2.04-1.65,3.22-4.12,3.22-6.74v-48.15c0-2.3.91-4.5,2.54-6.13l17.63-17.63"/>
          <line class="cls-2" x1="139.94" y1="166.57" x2="228.08" y2="78.42"/>
          <line class="cls-2" x1="134.87" y1="162.11" x2="228.03" y2="68.95"/>
          <line class="cls-2" x1="133.15" y1="154.31" x2="228.01" y2="59.45"/>
          <line class="cls-2" x1="138.43" y1="149.03" x2="138.43" y2="-21.98"/>
          <line class="cls-2" x1="144.42" y1="142.95" x2="144.42" y2="-27.72"/>
          <line class="cls-2" x1="150.41" y1="137.2" x2="150.41" y2="-33.85"/>
          <line class="cls-2" x1="156.4" y1="131.06" x2="156.4" y2="-39.72"/>
          <path class="cls-2" d="M110.34,106.88l6.11,5.91c1.81,1.75,2.83,4.16,2.83,6.68v70.59"/>
          <path class="cls-2" d="M97.83,116.98l3.67,3.55c1.81,1.75,2.83,4.16,2.83,6.68v47.91"/>
          <line class="cls-2" x1="119.28" y1="164.92" x2="154.08" y2="199.72"/>
          <path class="cls-2" d="M106.91,247.26v-27.04c0-3.13,1.24-6.14,3.46-8.35l15.36-15.36"/>
          <path class="cls-2" d="M180.58,51.67l-13.91,13.91c-1.18,1.18-2.77,1.84-4.43,1.84h-5.83"/>
          <path class="cls-2" d="M271.63-.26l-31.2,31.2c-1.31,1.31-2.05,3.09-2.05,4.94v23.56c0,1.85.74,3.63,2.05,4.94l10.87,10.87"/>
        </g>
        <g>
          <path class="cls-2" d="M-54.33,303.98L25.9,223.76c1.63-1.63,2.54-3.83,2.54-6.13v-29.44c0-2.62-1.18-5.1-3.22-6.74l-21.99-17.75C1.18,162.05,0,159.57,0,156.95v-48.15c0-2.3-.91-4.5-2.54-6.13l-12.35-12.35"/>
          <path class="cls-2" d="M8.42,212.36l-49.21-49.21c-1.63-1.63-2.54-3.83-2.54-6.13v-29.44c0-2.62,1.18-5.1,3.22-6.74l21.99-17.75c2.04-1.65,3.22-4.12,3.22-6.74v-48.15c0-2.3.91-4.5,2.54-6.13L5.28,24.43"/>
          <line class="cls-2" x1="6.78" y1="166.57" x2="94.93" y2="78.42"/>
          <line class="cls-2" x1="1.72" y1="162.11" x2="94.88" y2="68.95"/>
          <line class="cls-2" x1="0" y1="154.31" x2="94.86" y2="59.45"/>
          <line class="cls-2" x1="5.28" y1="149.03" x2="5.28" y2="-21.98"/>
          <line class="cls-2" x1="11.27" y1="142.95" x2="11.27" y2="-27.72"/>
          <line class="cls-2" x1="17.26" y1="137.2" x2="17.26" y2="-33.85"/>
          <line class="cls-2" x1="23.25" y1="131.06" x2="23.25" y2="-39.72"/>
          <line class="cls-2" x1="-13.87" y1="164.92" x2="20.92" y2="199.72"/>
          <path class="cls-2" d="M47.43,51.67l-13.91,13.91c-1.18,1.18-2.77,1.84-4.43,1.84h-5.83"/>
          <path class="cls-2" d="M138.48-.26l-31.2,31.2c-1.31,1.31-2.05,3.09-2.05,4.94v23.56c0,1.85.74,3.63,2.05,4.94l10.87,10.87"/>
        </g>
        <path class="cls-2" d="M5.33-.26l-31.2,31.2c-1.31,1.31-2.05,3.09-2.05,4.94v23.56c0,1.85.74,3.63,2.05,4.94l10.87,10.87"/>
        <g>
          <path class="cls-2" d="M145.4,170.83l80.22-80.22c1.63-1.63,2.54-3.83,2.54-6.13v-29.44c0-2.62-1.18-5.1-3.22-6.74l-21.99-17.75c-2.04-1.65-3.22-4.12-3.22-6.74V-24.35c0-2.3-.91-4.5-2.54-6.13l-12.35-12.35"/>
          <path class="cls-2" d="M208.15,79.21l-49.21-49.21c-1.63-1.63-2.54-3.83-2.54-6.13V-5.57c0-2.62,1.18-5.1,3.22-6.74l21.99-17.75c2.04-1.65,3.22-4.12,3.22-6.74v-48.15c0-2.3.91-4.5,2.54-6.13l17.63-17.63"/>
          <line class="cls-2" x1="206.51" y1="33.42" x2="294.66" y2="-54.73"/>
          <line class="cls-2" x1="201.45" y1="28.96" x2="294.61" y2="-64.2"/>
          <line class="cls-2" x1="199.73" y1="21.16" x2="294.59" y2="-73.7"/>
          <line class="cls-2" x1="205.01" y1="15.88" x2="205.01" y2="-155.14"/>
          <line class="cls-2" x1="211" y1="9.8" x2="211" y2="-160.87"/>
          <line class="cls-2" x1="216.99" y1="4.04" x2="216.99" y2="-167"/>
          <path class="cls-2" d="M176.91-26.27l6.11,5.91c1.81,1.75,2.83,4.16,2.83,6.68V56.91"/>
          <path class="cls-2" d="M164.41-16.18l3.67,3.55c1.81,1.75,2.83,4.16,2.83,6.68v47.91"/>
          <line class="cls-2" x1="185.85" y1="31.76" x2="220.65" y2="66.56"/>
          <path class="cls-2" d="M173.49,114.11v-27.04c0-3.13,1.24-6.14,3.46-8.35l15.36-15.36"/>
        </g>
        <g>
          <path class="cls-2" d="M12.25,170.83l80.22-80.22c1.63-1.63,2.54-3.83,2.54-6.13v-29.44c0-2.62-1.18-5.1-3.22-6.74l-21.99-17.75c-2.04-1.65-3.22-4.12-3.22-6.74V-24.35c0-2.3-.91-4.5-2.54-6.13l-12.35-12.35"/>
          <path class="cls-2" d="M75,79.21L25.79,30c-1.63-1.63-2.54-3.83-2.54-6.13V-5.57c0-2.62,1.18-5.1,3.22-6.74l21.99-17.75c2.04-1.65,3.22-4.12,3.22-6.74v-48.15c0-2.3.91-4.5,2.54-6.13l17.63-17.63"/>
          <line class="cls-2" x1="73.36" y1="33.42" x2="161.51" y2="-54.73"/>
          <line class="cls-2" x1="68.29" y1="28.96" x2="161.45" y2="-64.2"/>
          <line class="cls-2" x1="66.58" y1="21.16" x2="161.43" y2="-73.7"/>
          <line class="cls-2" x1="71.86" y1="15.88" x2="71.86" y2="-155.14"/>
          <line class="cls-2" x1="77.85" y1="9.8" x2="77.85" y2="-160.87"/>
          <line class="cls-2" x1="83.84" y1="4.04" x2="83.84" y2="-167"/>
          <path class="cls-2" d="M43.76-26.27l6.11,5.91c1.81,1.75,2.83,4.16,2.83,6.68V56.91"/>
          <path class="cls-2" d="M31.26-16.18l3.67,3.55c1.81,1.75,2.83,4.16,2.83,6.68v47.91"/>
          <line class="cls-2" x1="52.7" y1="31.76" x2="87.5" y2="66.56"/>
          <path class="cls-2" d="M40.34,114.11v-27.04c0-3.13,1.24-6.14,3.46-8.35l15.36-15.36"/>
        </g>
        <g>
          <line class="cls-2" x1="-59.79" y1="33.42" x2="28.36" y2="-54.73"/>
          <line class="cls-2" x1="-64.86" y1="28.96" x2="28.3" y2="-64.2"/>
          <line class="cls-2" x1="-66.58" y1="21.16" x2="28.28" y2="-73.7"/>
        </g>
        <path class="cls-2" d="M211.98,37.68l80.22-80.22c1.63-1.63,2.54-3.83,2.54-6.13v-29.44c0-2.62-1.18-5.1-3.22-6.74l-21.99-17.75c-2.04-1.65-3.22-4.12-3.22-6.74v-48.15c0-2.3-.91-4.5-2.54-6.13l-12.35-12.35"/>
        <path class="cls-2" d="M78.83,37.68l80.22-80.22c1.63-1.63,2.54-3.83,2.54-6.13v-29.44c0-2.62-1.18-5.1-3.22-6.74l-21.99-17.75c-2.04-1.65-3.22-4.12-3.22-6.74v-48.15c0-2.3-.91-4.5-2.54-6.13l-12.35-12.35"/>
        <path class="cls-2" d="M-54.33,37.68L25.9-42.54c1.63-1.63,2.54-3.83,2.54-6.13v-29.44c0-2.62-1.18-5.1-3.22-6.74L3.22-102.61C1.18-104.26,0-106.73,0-109.35v-48.15c0-2.3-.91-4.5-2.54-6.13l-12.35-12.35"/>
      </g>
    </pattern>
  </defs>
  <g id="PATTERN">
    <rect class="cls-3" width="500" height="500"/>
  </g>
</svg>